<?xml version="1.0" encoding="UTF-8"?><svg id="u" xmlns="http://www.w3.org/2000/svg" width="100" height="100" viewBox="0 0 100 100"><defs><style>.ab,.ac{stroke-linejoin:round;}.ab,.ac,.ad{fill:none;stroke-linecap:round;}.ab,.ad{stroke:#03181c;}.ac{stroke:#c39052;}.ae{fill:#03181c;}.ad{stroke-miterlimit:10;}</style></defs><g id="v"><path id="w" class="ad" d="M33.001,99.5v-16.925c1.335,.695,2.728,1.315,4.174,1.854,10.155,3.782,20.92,2.786,29.827-1.858v16.93m0-99V17.422c-1.336-.695-2.729-1.316-4.176-1.855-10.154-3.783-20.919-2.787-29.825,1.858V.5"/><path class="ab" d="M22.598,39.789c-5.638,15.135,2.061,31.974,17.195,37.613,15.135,5.636,31.975-2.06,37.613-17.195,5.638-15.136-2.061-31.975-17.196-37.613-15.134-5.638-31.974,2.06-37.611,17.195Z"/><g><path class="ab" d="M52.344,49.125c.482,1.294-.176,2.733-1.47,3.215-1.294,.482-2.733-.176-3.215-1.47-.482-1.294,.176-2.733,1.47-3.215,1.293-.482,2.733,.176,3.215,1.47Z"/><line class="ab" x1="67.176" y1="32.824" x2="51.793" y2="48.257"/><line class="ab" x1="48.371" y1="48.02" x2="40.001" y2="39.994"/></g><g><polyline class="ac" points="44.784 27.939 46.998 26.312 46.998 32.606"/><line class="ac" x1="45.489" y1="32.606" x2="48.371" y2="32.606"/><path class="ac" d="M50.595,27.404s.384-1.284,1.907-1.284c1.385,0,1.754,.861,1.754,1.718,0,1.012-.995,1.883-1.477,2.425s-2.344,2.344-2.344,2.344h3.821"/><path class="ac" d="M69.124,48.69s.169-1.048,1.24-1.409c.929-.313,1.578-.024,2.011,.373s.518,1.156,.325,1.553-.771,1.12-1.626,1.132c0,0,1.314,.217,1.614,1.156s-.101,1.506-.446,1.879c-.414,.446-1.517,.602-2.168,.205-.729-.445-1.006-1.139-1.096-1.337"/><g><ellipse class="ac" cx="29.471" cy="48.935" rx="1.888" ry="1.75"/><line class="ac" x1="28.758" y1="53.543" x2="31.111" y2="49.8"/></g><g><ellipse class="ac" cx="49.555" cy="72.753" rx="1.888" ry="1.75"/><line class="ac" x1="50.268" y1="68.145" x2="47.915" y2="71.888"/></g></g><path class="ab" d="M33.001,7.496h-4.75l-5.656,18.016c-2.967,3.319-5.376,7.236-7.023,11.659-4.83,12.965-1.869,26.926,6.531,36.744l6.149,19.585h4.75"/><path class="ab" d="M67.002,93.5h4.75l6.145-19.574,.003-.011c8.4-9.817,11.36-23.778,6.531-36.744-1.648-4.423-4.057-8.341-7.023-11.659l.002,.008-5.659-18.024h-4.75"/><circle class="ae" cx="50.002" cy="5.996" r="1"/><circle class="ae" cx="50.002" cy="94" r="1"/></g></svg>