<svg height="100" viewBox="0 0 100 100" width="100" xmlns="http://www.w3.org/2000/svg"><g fill="none" stroke="#03181c" stroke-linecap="round"><path d="m33.251 99.5v-16.925c1.335.695 2.728 1.315 4.174 1.854 10.155 3.782 20.92 2.786 29.827-1.858v16.93m0-99v16.921c-1.336-.695-2.729-1.316-4.176-1.855-10.154-3.783-20.919-2.787-29.825 1.858v-16.925" stroke-miterlimit="10"/><path d="m22.848 39.789c-5.638 15.135 2.061 31.974 17.195 37.613 15.135 5.636 31.975-2.06 37.613-17.195 5.638-15.136-2.061-31.975-17.196-37.613-15.134-5.638-31.974 2.06-37.611 17.195z" stroke-linejoin="round"/><path d="m33.251 7.496h-4.75l-5.656 18.016c-2.967 3.319-5.376 7.236-7.023 11.659-4.83 12.965-1.869 26.926 6.531 36.744l6.149 19.585h4.75" stroke-linejoin="round"/><path d="m67.252 93.5h4.75l6.145-19.574.003-.011c8.4-9.817 11.36-23.778 6.531-36.744-1.648-4.423-4.057-8.341-7.023-11.659l.002.008-5.659-18.024h-4.75" stroke-linejoin="round"/></g><circle cx="50.252" cy="5.996" fill="#03181c" r="1"/><circle cx="50.252" cy="94" fill="#03181c" r="1"/><path d="m45.852 39.097s2.119-1.879 4.672-1.83 3.805.739 4.769 2.168c1.18 1.75 1.012 4.046-.723 5.925s-2.236 1.879-3.069 2.601-1.282.789-1.25 2.538l.032 1.749" fill="none" stroke="#c39052" stroke-linecap="round" stroke-linejoin="round"/><path d="m50.299 61.639c.69 0 1.25-.56 1.25-1.25s-.56-1.25-1.25-1.25-1.25.56-1.25 1.25.56 1.25 1.25 1.25z" fill="#c39052"/></svg>