<?xml version="1.0" encoding="UTF-8"?>
<svg id="u" xmlns="http://www.w3.org/2000/svg" width="100" height="100" version="1.1" viewBox="0 0 100 100">
  <defs>
    <style>
      .cls-1 {
        fill: #03181c;
        stroke-width: 0px;
      }

      .cls-2 {
        stroke-miterlimit: 10;
      }

      .cls-2, .cls-3 {
        fill: none;
        stroke: #03181c;
        stroke-linecap: round;
      }

      .cls-3 {
        stroke-linejoin: round;
      }
    </style>
  </defs>
  <g id="v">
    <path id="w" class="cls-2" d="M33.3,99.5v-16.9c1.3.7,2.7,1.3,4.2,1.9,10.2,3.8,20.9,2.8,29.8-1.9v16.9M67.3.5v16.9c-1.3-.7-2.7-1.3-4.2-1.9-10.2-3.8-20.9-2.8-29.8,1.9V.5"/>
    <path class="cls-3" d="M22.8,39.8c-5.6,15.1,2.1,32,17.2,37.6,15.1,5.6,32-2.1,37.6-17.2,5.6-15.1-2.1-32-17.2-37.6-15.1-5.6-32,2.1-37.6,17.2h0Z"/>
    <g>
      <path class="cls-3" d="M52.6,49.1c.5,1.3-.2,2.7-1.5,3.2-1.3.5-2.7-.2-3.2-1.5-.5-1.3.2-2.7,1.5-3.2,1.3-.5,2.7.2,3.2,1.5Z"/>
      <line class="cls-3" x1="67.4" y1="32.8" x2="52" y2="48.3"/>
      <line class="cls-3" x1="48.6" y1="48" x2="40.3" y2="40"/>
    </g>
    <path class="cls-3" d="M33.3,7.5h-4.8l-5.7,18c-3,3.3-5.4,7.2-7,11.7-4.8,13-1.9,26.9,6.5,36.7l6.1,19.6h4.7"/>
    <path class="cls-3" d="M67.3,93.5h4.8l6.1-19.6h0c8.4-9.8,11.4-23.8,6.5-36.8-1.6-4.4-4.1-8.3-7-11.7h0s-5.7-18-5.7-18h-4.8"/>
    <circle class="cls-1" cx="50.3" cy="6" r="1"/>
    <circle class="cls-1" cx="50.3" cy="94" r="1"/>
  </g>
</svg>