<?xml version="1.0" encoding="UTF-8"?><svg id="u" xmlns="http://www.w3.org/2000/svg" width="100" height="100" viewBox="0 0 100 100"><defs><style>.ab,.ac{stroke-linejoin:round;}.ab,.ac,.ad{fill:none;stroke-linecap:round;}.ab,.ad{stroke:#03181c;}.ac{stroke:#c39052;}.ae{fill:#03181c;}.ad{stroke-miterlimit:10;}</style></defs><g id="v"><path id="w" class="ad" d="M33.158,99.5v-16.925c1.335,.695,2.728,1.315,4.174,1.854,10.155,3.782,20.92,2.786,29.827-1.858v16.93m0-99V17.422c-1.336-.695-2.729-1.316-4.176-1.855-10.154-3.783-20.919-2.787-29.825,1.858V.5"/><path class="ab" d="M22.755,39.789c-5.638,15.135,2.061,31.974,17.195,37.613,15.135,5.636,31.975-2.06,37.613-17.195,5.638-15.136-2.061-31.975-17.196-37.613-15.134-5.638-31.974,2.06-37.611,17.195Z"/><g><path class="ab" d="M52.501,49.125c.482,1.294-.176,2.733-1.47,3.215-1.294,.482-2.733-.176-3.215-1.47-.482-1.294,.176-2.733,1.47-3.215,1.293-.482,2.733,.176,3.215,1.47Z"/><line class="ab" x1="67.333" y1="32.824" x2="51.951" y2="48.257"/><line class="ab" x1="48.528" y1="48.02" x2="40.158" y2="39.994"/></g><path class="ab" d="M33.158,7.496h-4.75l-5.656,18.016c-2.967,3.319-5.376,7.236-7.023,11.659-4.83,12.965-1.869,26.926,6.531,36.744l6.149,19.585h4.75"/><path class="ab" d="M67.16,93.5h4.75l6.145-19.574,.003-.011c8.4-9.817,11.36-23.778,6.531-36.744-1.648-4.423-4.057-8.341-7.023-11.659l.002,.008-5.659-18.024h-4.75"/><circle class="ae" cx="50.159" cy="5.996" r="1"/><circle class="ae" cx="50.159" cy="94" r="1"/><g><line class="ac" x1="44.343" y1="26.091" x2="49.152" y2="32.824"/><line class="ac" x1="49.152" y1="26.091" x2="44.343" y2="32.899"/><line class="ac" x1="51.372" y1="26.091" x2="51.372" y2="32.998"/><line class="ac" x1="33.301" y1="47.044" x2="28.492" y2="53.777"/><line class="ac" x1="28.492" y1="47.044" x2="33.301" y2="53.852"/><line class="ac" x1="26.272" y1="47.044" x2="26.272" y2="53.951"/><line class="ac" x1="54.171" y1="26.091" x2="54.171" y2="32.998"/><line class="ac" x1="68.225" y1="46.957" x2="68.225" y2="53.864"/><line class="ac" x1="71.023" y1="46.957" x2="71.023" y2="53.864"/><line class="ac" x1="73.822" y1="46.957" x2="73.822" y2="53.864"/><polyline class="ac" points="45.817 67.959 48.125 74.867 50.934 67.959"/><line class="ac" x1="52.846" y1="67.959" x2="52.846" y2="74.867"/></g></g></svg>