<?xml version="1.0" encoding="UTF-8"?><svg id="u" xmlns="http://www.w3.org/2000/svg" width="100" height="100" viewBox="0 0 100 100"><defs><style>.ab,.ac{stroke-linejoin:round;}.ab,.ac,.ad{fill:none;stroke-linecap:round;}.ab,.ad{stroke:#03181c;}.ac{stroke:#c39052;}.ae{fill:#03181c;}.ad{stroke-miterlimit:10;}</style></defs><g id="v"><path id="w" class="ad" d="M33.251,99.5v-16.925c1.335,.695,2.728,1.315,4.174,1.854,10.155,3.782,20.92,2.786,29.827-1.858v16.93m0-99V17.422c-1.336-.695-2.729-1.316-4.176-1.855-10.154-3.783-20.919-2.787-29.825,1.858V.5"/><path class="ab" d="M22.848,39.789c-5.638,15.135,2.061,31.974,17.195,37.613,15.135,5.636,31.975-2.06,37.613-17.195,5.638-15.136-2.061-31.975-17.196-37.613-15.134-5.638-31.974,2.06-37.611,17.195Z"/><g><path class="ab" d="M52.594,49.125c.482,1.294-.176,2.733-1.47,3.215-1.294,.482-2.733-.176-3.215-1.47-.482-1.294,.176-2.733,1.47-3.215,1.293-.482,2.733,.176,3.215,1.47Z"/><line class="ab" x1="67.426" y1="32.824" x2="52.043" y2="48.257"/><line class="ab" x1="48.621" y1="48.02" x2="40.251" y2="39.994"/></g><path class="ab" d="M33.251,7.496h-4.75l-5.656,18.016c-2.967,3.319-5.376,7.236-7.023,11.659-4.83,12.965-1.869,26.926,6.531,36.744l6.149,19.585h4.75"/><path class="ab" d="M67.252,93.5h4.75l6.145-19.574,.003-.011c8.4-9.817,11.36-23.778,6.531-36.744-1.648-4.423-4.057-8.341-7.023-11.659l.002,.008-5.659-18.024h-4.75"/><circle class="ae" cx="50.252" cy="5.996" r="1"/><circle class="ae" cx="50.252" cy="94" r="1"/><g><line class="ac" x1="50.002" y1="26.091" x2="50.002" y2="32.998"/><line class="ac" x1="50.002" y1="66.503" x2="50.002" y2="73.41"/><line class="ac" x1="26.342" y1="49.751" x2="33.249" y2="49.751"/><line class="ac" x1="66.754" y1="49.751" x2="73.661" y2="49.751"/></g></g></svg>